<?xml version="1.0" standalone="yes"?>
<svg width="1280" height="720">
<path style="fill:#ffffff; stroke:none;" d="M0 0L0 248L26 248L26 323L0 323L0 720L151 720L151 699L126 699L126 599L76 599L76 574L126 574L126 524L151 524L151 499L176 499L176 448L151 448L151 423L126 423L126 398L176 398L176 423L327 423L327 398L377 398L377 423L352 423L352 448L327 448L327 499L352 499L352 524L377 524L377 574L427 574L427 599L377 599L377 699L352 699L352 720L929 720L929 699L904 699L904 599L854 599L854 574L829 574L829 524L854 524L854 499L879 499L879 473L904 473L904 423L879 423L879 398L854 398L854 373L829 373L829 348L804 348L804 323L779 323L779 248L804 248L804 147L829 147L829 97L854 97L854 72L879 72L879 47L929 47L929 22L1130 22L1130 47L1205 47L1205 97L1230 97L1230 147L1255 147L1255 248L1280 248L1280 0L427 0L427 47L477 47L477 72L427 72L427 97L452 97L452 147L477 147L477 248L452 248L452 298L427 298L427 348L452 348L452 373L402 373L402 323L377 323L377 298L352 298L352 273L327 273L327 248L277 248L277 273L226 273L226 298L176 298L176 373L151 373L151 323L101 323L101 373L51 373L51 348L76 348L76 298L51 298L51 248L26 248L26 147L51 147L51 97L76 97L76 72L101 72L101 47L151 47L151 22L352 22L352 47L402 47L402 0L0 0z"/>
<path style="fill:#000000; stroke:none;" d="M402 0L402 47L352 47L352 22L151 22L151 47L101 47L101 72L76 72L76 97L51 97L51 147L26 147L26 248L51 248L51 298L76 298L76 348L51 348L51 373L101 373L101 323L151 323L151 373L176 373L176 298L226 298L226 273L277 273L277 248L327 248L327 273L352 273L352 298L377 298L377 323L402 323L402 373L452 373L452 348L427 348L427 298L452 298L452 248L477 248L477 147L452 147L452 97L427 97L427 72L477 72L477 47L427 47L427 0L402 0z"/>
<path style="fill:#934ad0; stroke:none;" d="M929 22L929 47L879 47L879 72L881 72L881 49L916 49L929.307 47.3966L930 23L1072 23L1110 23C1114.64 23 1121.7 21.7224 1125.85 24.179C1131.46 27.4994 1129 40.4085 1129 46L1130 46L1130 22L929 22z"/>
<path style="fill:#a735ff; stroke:none;" d="M930 23L929.111 46.6821L917 49L881 49L881 72L855 73C855 78.9641 857.681 93.4171 851.852 97.0525C846.866 100.162 833.514 94.4028 830.603 100.318C826.702 108.247 830 125.167 830 134C830 138.157 831.096 144.459 826.852 146.972C821.635 150.061 810.935 148 805 148L805 247C810.961 247 822.58 244.775 827.682 248.179C831.28 250.58 830 257.308 830 261C830 269.839 826.712 286.776 830.742 294.682C834.103 301.274 848.285 293.738 853.397 298.742C855.827 301.121 855 305.934 855 309L855 336C855 339.268 855.986 344.723 853.397 347.258C849.103 351.461 835.646 349 830 349C830 353.722 827.544 368.915 832.434 371.397C837.983 374.213 847.677 368.884 852.397 373.603C856.597 377.804 854 392.358 854 398L879 398L879 423L904 423L904 472L928 472L928 448L955 448L955 497L978 497L978 463C978 459.157 976.792 452.668 979.028 449.318C981.723 445.279 1000.28 445.279 1002.97 449.318C1006.28 454.271 1004 466.178 1004 472L1054 471L1054 447C1059.99 447 1074.87 444.313 1079.4 448.742C1082.13 451.423 1081 457.538 1081 461C1081 472.99 1080 484.958 1080 497L1104 497L1104 448L1131 448L1131 472L1153 472L1153 436C1153 431.964 1151.83 425.542 1155.32 422.603C1160.1 418.572 1173.02 421 1179 421L1178 398C1184.28 396.506 1197.47 399.873 1202.4 395.972C1207.57 391.872 1202.01 378.829 1204.6 373.188C1206.83 368.352 1224.17 371 1229 371L1229 349L1204 349L1204 312L1206.32 298.603L1229 297L1229 247L1254 247L1254 181C1254 172.06 1256.23 159.72 1253.68 151.148C1251.41 143.493 1235.44 151.425 1230.6 145.682C1227.83 142.39 1229 135.993 1229 132L1229 99L1205.43 97.9722L1203 85L1203 49L1130 49C1129.31 43.569 1131.39 27.3212 1126.68 24.179C1122.84 21.6179 1115.4 23 1111 23L1073 23L930 23z"/>
<path style="fill:#914eb7; stroke:none;" d="M1130 47L1130 48L1204 48L1204 96L1205 96L1205 47L1130 47z"/>
<path style="fill:#9b40d9; stroke:none;" d="M1130 48L1130 49L1203 49L1203 85L1204.74 97.9722L1229 99L1229 146L1230 146L1230 97L1206.32 95.9722L1204 83L1204 48L1130 48z"/>
<path style="fill:#9448cf; stroke:none;" d="M854 72L854 96L855 96L855 73L878 73L854 72z"/>
<path style="fill:#8d4eb6; stroke:none;" d="M829 97L829 146L830 146L830 111L832.318 99.0278L853 98L829 97z"/>
<path style="fill:#9446cd; stroke:none;" d="M804 147L804 248L828 248L828 247L805 247L805 148L828 148L804 147z"/>
<path style="fill:#9947c7; stroke:none;" d="M1231 147L1231 148C1236.14 148 1248.53 145.737 1252.4 149.603C1256.69 153.901 1254 169.232 1254 175L1254 247L1229 247L1229 297L1206 297L1206 298L1230 298L1230 248L1255 248L1255 147L1231 147z"/>
<path style="fill:#a53ddc; stroke:none;" d="M977 246L977 271L904 271L904 272L978 272L978 247L1004 247C998.144 242.564 984.326 246 977 246z"/>
<path style="fill:#9e4aac; stroke:none;" d="M978 247L978 272L903 272L903 297L880 297L880 298L904 298L904 273L979 273L979 248L1004 248L978 247z"/>
<path style="fill:#9f45c0; stroke:none;" d="M1080 247L1080 248L1130 248C1117.11 242.591 1094.05 247 1080 247z"/>
<path style="fill:#000000; stroke:none;" d="M0 248L0 323L26 323L26 248L0 248M477 248L477 323L452 323L452 348L477 348L477 323L502 323L502 248L477 248z"/>
<path style="fill:#9d46c8; stroke:none;" d="M779 248L779 323L804 323L804 248L779 248z"/>
<path style="fill:#ffd6ff; stroke:none;" d="M804 248L804 323L829 323L829 322L805 322L805 249L828 249L828 298L829 298L829 248L804 248z"/>
<path style="fill:#994bb8; stroke:none;" d="M829 248L829 298L853 298L853 297L832.434 295.972L830 283L829 248z"/>
<path style="fill:#fab9d1; stroke:none;" d="M979 248L979 272L980 272C980 266.559 977.729 254.469 982.318 250.603C986.683 246.926 997.588 249 1003 249L1003 323L1004 323L1004 248L979 248z"/>
<path style="fill:#9f46ba; stroke:none;" d="M1004 248L1004 323L1030 323L1030 299L1029 299L1029 322L1005 322L1005 271L1004 248z"/>
<path style="fill:#a148b2; stroke:none;" d="M1079 248L1079 272L1053 272C1053 277.678 1055.6 291.956 1050.43 295.682C1045.99 298.875 1036.24 297 1031 297L1031 298L1055 298L1055 273L1080 273L1079 248z"/>
<path style="fill:#fcb8cd; stroke:none;" d="M1080 248L1080 272L1081 272L1081 249L1129 249L1129 273L1130 273L1130 248L1080 248z"/>
<path style="fill:#a147c2; stroke:none;" d="M1130 248L1130 273L1155 273L1155 298L1179 298L1179 297C1173.93 297 1160.06 299.478 1157.6 293.852C1155.31 288.606 1160.19 276.826 1155.4 273.028C1150.83 269.414 1136.7 272 1131 272L1130 248z"/>
<path style="fill:#ffcdff; stroke:none;" d="M1230 248L1230 297L1231 297L1231 249L1254 249L1254 301L1252.26 320.397L1231 322L1231 323L1255 323L1255 248L1230 248z"/>
<path style="fill:#954eb8; stroke:none;" d="M1255 248L1255 323L1280 323L1280 322C1274.75 322 1261.64 324.373 1257.74 320.397C1254.14 316.72 1256 306.735 1256 302C1256 284.913 1253.04 264.638 1257 248L1255 248z"/>
<path style="fill:#a735ff; stroke:none;" d="M1280 322L1280 248C1274.68 248 1261.88 245.638 1257.6 249.028C1254.28 251.657 1256 261.214 1256 265L1256 305C1256 309.053 1254.51 317.025 1257.18 320.397C1260.4 324.461 1275.15 322 1280 322M781 249L781 322L803 322L803 249L781 249z"/>
<path style="fill:#ffe7c5; stroke:none;" d="M805 249L805 322L829 322L828 249L805 249z"/>
<path style="fill:#f3c98d; stroke:none;" d="M905 274C905 279.477 907.487 293.306 903.397 297.397C899.306 301.487 885.477 299 880 299L880 323L928 323C928 317.023 925.572 304.102 929.603 299.318C933.853 294.274 948.936 297 955 297L955 323L1003 323L1003 249C997.944 249 984.185 246.586 981.028 251.318C977.021 257.322 984.352 269.739 975.941 273.258C969.958 275.761 960.408 274 954 274L905 274M1081 249C1081 254.696 1083.32 267.049 1079.4 271.566C1075.14 276.465 1061.9 274 1056 274L1055 298L1155 298C1153.62 292.191 1156.59 280.168 1152.97 275.603C1149.2 270.845 1137.4 275.633 1132.15 273.258C1126.23 270.578 1129 254.481 1129 249L1081 249z"/>
<path style="fill:#ffe7c5; stroke:none;" d="M1231 249C1231 266.735 1230.47 284.441 1230.01 302C1229.89 306.838 1232.09 317.703 1228.4 321.397C1224.42 325.376 1211.31 323 1206 323L1206 347L1229 347C1229 341.15 1226.31 326.482 1232.15 323.028C1237.2 320.038 1250.3 325.474 1253.26 319.682C1255.89 314.528 1254 304.692 1254 299L1254 249L1231 249z"/>
<path style="fill:#f9b5dc; stroke:none;" d="M904 273L904 298L905 298L905 274L977 274L954 273L904 273z"/>
<path style="fill:#fdb4e2; stroke:none;" d="M1055 273L1055 297L1056 297L1056 274L1078 274L1055 273z"/>
<path style="fill:#f9b4e0; stroke:none;" d="M1131 273L1131 274L1152.4 275.603L1154 297L1155 297L1155 273L1131 273z"/>
<path style="fill:#9a3fe2; stroke:none;" d="M902 275L902 296L878 295L877 354L878.603 373.972L902 375L902 398L904 398L904 373C898.358 373 883.804 375.597 879.603 371.397C876.337 368.13 878 359.241 878 355L878 315C878 310.474 876.645 303.073 879.742 299.318C883.718 294.497 897.3 297 903 297L902 275z"/>
<path style="fill:#fdb7cf; stroke:none;" d="M930 297L930 298L954 298L954 323L955 323L955 297L930 297z"/>
<path style="fill:#fab6cb; stroke:none;" d="M1106 297L1106 298L1130 298L1106 297z"/>
<path style="fill:#000000; stroke:none;" d="M327 298L327 373L352 373L352 298L327 298z"/>
<path style="fill:#fdb8cd; stroke:none;" d="M829 298L829 299L853 299L853 323L854 323L854 298L829 298z"/>
<path style="fill:#9947c3; stroke:none;" d="M854 298L854 348L855 348C855 333.951 859.409 310.889 854 298z"/>
<path style="fill:#fbb6cb; stroke:none;" d="M879 298L879 322L880 322L880 299L904 299L879 298z"/>
<path style="fill:#9c46c3; stroke:none;" d="M929 298L929 373L954 373L954 298L929 298z"/>
<path style="fill:#ffd2ff; stroke:none;" d="M1030 298L1030 321L1031 321L1031 299L1054 299L1030 298z"/>
<path style="fill:#ffe7c5; stroke:none;" d="M1031 299C1031 304.474 1033.35 317.221 1029.26 321.397C1025.71 325.023 1014.7 323 1010 323L955 323C955 336.029 959.264 357.889 954.397 369.941C952.145 375.516 932.307 376.596 929.028 371.682C926.792 368.332 928 361.843 928 358L928 323L880 323L880 358L881.603 370.972L905 372L905 397L954 398L954 422L1105 422L1105 398L1154 397C1154 391.112 1151.45 377.337 1155.89 372.894C1160.22 368.565 1173.28 371 1179 371L1179 323L1155 323L1155 298L1130 298C1133.47 312.567 1131 330.049 1131 345C1131 352.397 1132.56 361.813 1130.68 368.981C1128.99 375.457 1109.92 376.717 1105.6 372.397C1101.98 368.77 1104 357.762 1104 353L1104 298L1031 299z"/>
<path style="fill:#ffccff; stroke:none;" d="M1104 298L1104 354L1105.6 372.972L1129 374L1129 373L1105 373L1105 321L1104 298z"/>
<path style="fill:#9c46c3; stroke:none;" d="M1105 298L1105 373L1130 373L1130 298L1105 298z"/>
<path style="fill:#fab9d1; stroke:none;" d="M1155 298L1155 299L1179 299L1179 323L1180 323L1180 298L1155 298z"/>
<path style="fill:#fab6cf; stroke:none;" d="M1205 298L1205 323L1206 323L1206 299L1230 299L1205 298z"/>
<path style="fill:#f2ca8d; stroke:none;" d="M829 299C829 304.321 826.638 317.117 830.028 321.397C833.253 325.468 848.14 323 853 323L853 299L829 299z"/>
<path style="fill:#fcb6db; stroke:none;" d="M928 299L928 322L929 322L928 299z"/>
<path style="fill:#a934ff; stroke:none;" d="M930 299L930 353L931.603 370.972L953 372L953 299L930 299z"/>
<path style="fill:#a934fe; stroke:none;" d="M1106 299L1106 353L1107.6 370.972L1129 372L1129 299L1106 299z"/>
<path style="fill:#ffd3fc; stroke:none;" d="M1130 299L1130 372L1131 372L1131 322L1130 299z"/>
<path style="fill:#f3ca8c; stroke:none;" d="M1155 299L1155 323L1179 323L1179 299L1155 299z"/>
<path style="fill:#9d46c8; stroke:none;" d="M1180 299L1180 372L1181 372L1181 322L1180 299z"/>
<path style="fill:#9448cc; stroke:none;" d="M1204 299L1204 349L1229 349L1229 371L1204.6 372.333L1202.4 395.397L1178 398L1179 421L1155.32 422.028L1153 435L1153 471L1154 471L1154 436L1156.32 424.028L1180 423L1180 398L1205 398L1205 373L1230 373L1230 348L1205 348C1205 334.212 1209.31 311.652 1204 299z"/>
<path style="fill:#f1cb8c; stroke:none;" d="M1206 299L1206 323C1210.86 323 1225.75 325.468 1228.97 321.397C1232.36 317.117 1230 304.321 1230 299L1206 299z"/>
<path style="fill:#984cb8; stroke:none;" d="M878 300L878 372L879 372L879 323L878 300z"/>
<path style="fill:#fee7c5; stroke:none;" d="M829 322L830 347L853 347L853 323L829 322z"/>
<path style="fill:#ffccff; stroke:none;" d="M879 322L879 373L904 373L904 398L928 398L928 397L905 397L905 372L882.318 370.972L880 358L879 322M928 322L928 373L929 373C929 358.689 933.508 335.127 928 322z"/>
<path style="fill:#000000; stroke:none;" d="M26 323L26 348L51 348L51 323L26 323z"/>
<path style="fill:#9845d1; stroke:none;" d="M804 323L804 348L829 348L829 323L804 323z"/>
<path style="fill:#ffd5fb; stroke:none;" d="M853 323L853 347L830 347L830 324L829 324L829 348L854 348L853 323z"/>
<path style="fill:#ffd3fc; stroke:none;" d="M954 323L954 372L955 372C955 358.212 959.309 335.652 954 323z"/>
<path style="fill:#ffd6ff; stroke:none;" d="M1179 323L1179 371L1156 371L1156 373L1180 373C1180 358.951 1184.41 335.889 1179 323z"/>
<path style="fill:#ffd0ff; stroke:none;" d="M1205 323L1205 348L1230 348L1230 324L1229 324L1229 347L1206 347L1205 323z"/>
<path style="fill:#9547ce; stroke:none;" d="M1230 323L1230 348L1255 348L1255 323L1230 323z"/>
<path style="fill:#ffffff; stroke:none;" d="M1255 323L1255 348L1230 348L1230 373L1205 373L1205 398L1180 398L1180 423L1155 423L1155 473L1180 473L1180 499L1205 499L1205 524L1230 524L1230 574L1205 574L1205 599L1155 599L1155 699L1130 699L1130 720L1280 720L1280 323L1255 323z"/>
<path style="fill:#a732fd; stroke:none;" d="M805 325L805 347L827 347L827 325L805 325z"/>
<path style="fill:#a635ff; stroke:none;" d="M1231 325L1231 347C1235.91 347 1248.24 349.247 1251.68 345.106C1255.08 341.02 1253 330.068 1253 325L1231 325z"/>
<path style="fill:#914fbb; stroke:none;" d="M829 348L829 373L853 373L853 372C847.92 372 835.526 374.262 831.742 370.397C827.771 366.34 830 354.302 830 349L853 349L829 348z"/>
<path style="fill:#000000; stroke:none;" d="M101 373L101 398L126 398L126 373L101 373M377 373L377 398L402 398L402 373L377 373z"/>
<path style="fill:#ffccff; stroke:none;" d="M929 373L929 374L953 374L929 373z"/>
<path style="fill:#ffd4ff; stroke:none;" d="M1154 373L1154 397L1130 397L1130 398L1155 398L1154 373z"/>
<path style="fill:#964bb4; stroke:none;" d="M1155 373L1155 397L1156 397L1157.6 375.603L1179 374L1155 373z"/>
<path style="fill:#000000; stroke:none;" d="M126 398L126 423L151 423L151 448L176 448L176 499L151 499L151 524L126 524L126 574L76 574L76 599L126 599L126 699L151 699L151 720L201 720L201 699L226 699L226 649L277 649L277 699L302 699L302 720L352 720L352 699L377 699L377 599L427 599L427 574L377 574L377 524L352 524L352 499L327 499L327 448L352 448L352 423L377 423L377 398L327 398L327 423L176 423L176 398L126 398z"/>
<path style="fill:#9e49b1; stroke:none;" d="M904 398L904 399L928 399L928 422L929 422L929 398L904 398z"/>
<path style="fill:#f2c991; stroke:none;" d="M929 398L930 422L954 422L954 398L929 398z"/>
<path style="fill:#f3c98f; stroke:none;" d="M1105 398L1105 422L1129 422L1129 398L1105 398z"/>
<path style="fill:#f9b5dc; stroke:none;" d="M1129 398L1129 422L1105 422L1105 423L1130 423L1129 398z"/>
<path style="fill:#9944c6; stroke:none;" d="M1130 398L1130 422L1131 422L1131 399L1152 399L1130 398z"/>
<path style="fill:#f9b5da; stroke:none;" d="M929 399L929 423L954 423L954 422L930 422L929 399z"/>
<path style="fill:#ffceff; stroke:none;" d="M954 422L954 423L1105 423C1093.31 418.093 1072.73 422 1060 422L954 422z"/>
<path style="fill:#954db9; stroke:none;" d="M930 423L930 424L1130 424L1111 423L1071 423L930 423z"/>
<path style="fill:#9e49ae; stroke:none;" d="M1154 424L1154 458L1152.4 470.397L1131 472L1131 448L1130 448L1130 473L1155 473C1155 459.212 1159.31 436.652 1154 424z"/>
<path style="fill:#6355ff; stroke:none;" d="M980 473C978.809 467.997 976.329 452.357 981.318 449.028C986.1 445.837 997.389 448 1003 448C998.701 446.196 983.463 444.971 979.603 448.028C975.919 450.946 976.789 470.194 980 473z"/>
<path style="fill:#ce2fb0; stroke:none;" d="M1054 447L1054 471L1055 471L1055 448L1079 448L1054 447z"/>
<path style="fill:#000000; stroke:none;" d="M126 448L126 473L101 473L101 499L76 499L76 524L51 524L51 574L76 574L76 524L101 524L101 499L126 499L126 473L151 473L151 448L126 448z"/>
<path style="fill:#ffffff; stroke:none;" d="M226 448L226 473L277 473L277 448L226 448z"/>
<path style="fill:#000000; stroke:none;" d="M352 448L352 473L377 473L377 499L402 499L402 524L427 524L427 574L452 574L452 524L427 524L427 499L402 499L402 473L377 473L377 448L352 448z"/>
<path style="fill:#9e49ae; stroke:none;" d="M928 448L928 472L904 472L904 473L929 473L928 448z"/>
<path style="fill:#f7c2b2; stroke:none;" d="M929 448C929 453.642 931.597 468.196 927.397 472.397C923.417 476.376 910.31 474 905 474L905 496L906 496L906 475C911.477 475 925.306 477.487 929.397 473.397C933.597 469.196 931 454.642 931 449L953 449L953 498L929 498L929 499L954 499L954 448L929 448z"/>
<path style="fill:#9e46be; stroke:none;" d="M954 448L954 498L955 498C955 483.951 959.409 460.889 954 448z"/>
<path style="fill:#0188fe; stroke:none;" d="M979 472L1004 472L1004 448C998.998 448 983.331 445.433 980.028 449.603C976.638 453.884 979 466.678 979 472z"/>
<path style="fill:#c5024e; stroke:none;" d="M1055 448L1055 471L1056 471L1056 449L1079 449L1079 472L1080 472L1080 448L1055 448z"/>
<path style="fill:#c831be; stroke:none;" d="M1080 448L1080 472L1081 472L1080 448z"/>
<path style="fill:#9e49b1; stroke:none;" d="M1104 448L1104 498L1105 498C1105 483.951 1109.41 460.889 1104 448z"/>
<path style="fill:#fbb4dc; stroke:none;" d="M1105 448L1105 499L1129 499L1129 498L1107.6 496.397L1106 484L1106 449L1129 449L1129 474C1134.48 474 1148.31 471.513 1152.4 475.603C1156.49 479.694 1154 493.523 1154 499L1155 499L1155 473L1130 473L1130 448L1105 448z"/>
<path style="fill:#f3c98d; stroke:none;" d="M931 449C931 454.91 933.615 469.24 928.682 473.397C924.036 477.311 911.79 475 906 475L905 499L953 498L953 449L931 449z"/>
<path style="fill:#e3000c; stroke:none;" d="M1056 449L1056 471L1079 471L1079 449L1056 449z"/>
<path style="fill:#f3c98d; stroke:none;" d="M1106 449L1106 483L1107.03 496.397L1120 498L1154 499C1154 493.49 1156.47 480.025 1152.97 475.603C1149.67 471.433 1134 474 1129 474L1129 449L1106 449z"/>
<path style="fill:#8451ca; stroke:none;" d="M1030 471L1030 472L1055 472L1030 471z"/>
<path style="fill:#b5112c; stroke:none;" d="M1055 471L1055 472L1079 472L1055 471z"/>
<path style="fill:#2b7fbb; stroke:none;" d="M980 472L980 473L1004 473L980 472z"/>
<path style="fill:#cf30b0; stroke:none;" d="M1004 472L1004 473L1030 473L1004 472z"/>
<path style="fill:#5e748b; stroke:none;" d="M1030 472L1030 473L1056 474C1050.09 469.522 1037.25 472 1030 472z"/>
<path style="fill:#7b2759; stroke:none;" d="M1055 472L1055 473L1080 473L1055 472z"/>
<path style="fill:#974ab4; stroke:none;" d="M879 473L879 499L904 499L904 473L879 473z"/>
<path style="fill:#fcb8d1; stroke:none;" d="M904 473L904 499L905 499L905 474L928 474L904 473z"/>
<path style="fill:#8250cd; stroke:none;" d="M978 473L978 497L955 497L955 498L979 498L978 473z"/>
<path style="fill:#fcfffd; stroke:none;" d="M979 473L979 498L1004 499L1004 473L979 473z"/>
<path style="fill:#c9ffff; stroke:none;" d="M980 473L980 474L1003 474L980 473z"/>
<path style="fill:#bc0558; stroke:none;" d="M1004 473L1004 474L1030 474L1004 473z"/>
<path style="fill:#56b677; stroke:none;" d="M1030 473L1030 474L1054 474L1030 473z"/>
<path style="fill:#6861ae; stroke:none;" d="M1056 473L1056 474L1080 474L1056 473z"/>
<path style="fill:#9e4aa8; stroke:none;" d="M1155 473L1155 499L1180 499L1180 498C1174.69 498 1161.58 500.376 1157.6 496.397C1153.62 492.417 1156 479.31 1156 474L1180 475C1175.92 470.331 1161.02 473 1155 473z"/>
<path style="fill:#a735ff; stroke:none;" d="M880 474L880 498L903 498L903 474L880 474z"/>
<path style="fill:#e3000b; stroke:none;" d="M1004 474L1004 498L1029 498L1029 474L1004 474z"/>
<path style="fill:#8c3500; stroke:none;" d="M1029 474L1029 498L1030 498L1029 474z"/>
<path style="fill:#69c023; stroke:none;" d="M1030 474L1030 498L1031 498L1030 474z"/>
<path style="fill:#17e63e; stroke:none;" d="M1031 474L1031 475L1053 475L1053 497L1031 497L1031 498L1054 498L1054 474L1031 474z"/>
<path style="fill:#19d777; stroke:none;" d="M1054 474L1054 498L1055 498L1054 474z"/>
<path style="fill:#00a791; stroke:none;" d="M1055 474L1055 498L1056 498L1055 474z"/>
<path style="fill:#346efe; stroke:none;" d="M1056 474L1056 475L1079 475L1079 497L1056 497L1056 498L1080 498L1080 474L1056 474z"/>
<path style="fill:#a33fd7; stroke:none;" d="M1156 474L1156 497L1157 497L1157 475L1179 475L1156 474z"/>
<path style="fill:#0bf40d; stroke:none;" d="M1031 475L1031 497L1053 497L1053 475L1031 475z"/>
<path style="fill:#0188fe; stroke:none;" d="M1056 475L1056 497L1079 497L1079 475L1056 475z"/>
<path style="fill:#a735fc; stroke:none;" d="M1157 475L1157 498L1180 498L1180 475L1157 475z"/>
<path style="fill:#824fce; stroke:none;" d="M1080 497L1080 498L1104 498L1080 497z"/>
<path style="fill:#ffe7c5; stroke:none;" d="M928 498C913.919 502.162 894.723 500 880 500C880 505.41 882.483 519.257 878.397 523.258C874.103 527.461 860.646 525 855 525L855 573L903 573L903 539C903 535.157 901.792 528.668 904.028 525.318C907.63 519.919 919.396 524.33 924.772 522.682C929.966 521.09 929.068 502.446 928 498z"/>
<path style="fill:#5d7291; stroke:none;" d="M954 498L954 499L979 499L954 498z"/>
<path style="fill:#c7ffff; stroke:none;" d="M979 498L979 499L1003 499L979 498z"/>
<path style="fill:#942128; stroke:none;" d="M1004 498L1004 499L1030 499L1004 498z"/>
<path style="fill:#00aa8d; stroke:none;" d="M1030 498C1033.99 502.565 1048.13 500 1054 500L1054 499L1030 498z"/>
<path style="fill:#17d976; stroke:none;" d="M1031 498L1031 499L1054 499L1031 498z"/>
<path style="fill:#3991b7; stroke:none;" d="M1054 498L1054 500L1056 500L1056 498L1054 498z"/>
<path style="fill:#5663e6; stroke:none;" d="M1056 498L1056 499L1078 499L1056 498z"/>
<path style="fill:#5d7192; stroke:none;" d="M1078 498L1078 499L1105 500C1100.74 495.126 1084.32 498 1078 498z"/>
<path style="fill:#994cb6; stroke:none;" d="M854 499L854 524L879 524L879 499L854 499z"/>
<path style="fill:#ffcdff; stroke:none;" d="M879 499L879 524L880 524L880 500L904 500L879 499z"/>
<path style="fill:#984db6; stroke:none;" d="M929 499L929 523L930 523L930 500L953 500L929 499z"/>
<path style="fill:#6c65a9; stroke:none;" d="M953 499L953 524L954 524L953 499z"/>
<path style="fill:#4bc465; stroke:none;" d="M954 499L954 524L955 524L955 500L979 500L954 499z"/>
<path style="fill:#287ec9; stroke:none;" d="M979 499L979 500L1003 500L1003 523L1004 523L1004 499L979 499z"/>
<path style="fill:#fefeff; stroke:none;" d="M1004 499L1004 524L1030 524L1030 500L1004 499z"/>
<path style="fill:#ffd9dd; stroke:none;" d="M1005 499L1005 500L1030 500L1005 499z"/>
<path style="fill:#a86df9; stroke:none;" d="M1056 499L1056 500L1079 500L1056 499z"/>
<path style="fill:#ac7f9c; stroke:none;" d="M1079 499L1079 524L1080 524L1079 499z"/>
<path style="fill:#5bbe51; stroke:none;" d="M1080 499L1080 524L1081 524L1081 500L1104 500L1080 499z"/>
<path style="fill:#9a49bf; stroke:none;" d="M1105 499L1106 524L1107 524L1107 500L1129 500L1129 523L1130 523L1130 499L1105 499z"/>
<path style="fill:#fee7c5; stroke:none;" d="M1130 499L1131 523C1136.85 523 1151.52 520.314 1154.97 526.148C1159.4 533.618 1156 551.396 1156 560C1156 563.151 1154.78 569.739 1157.6 571.972C1161.44 575.01 1172.29 573 1177 573C1182.76 573 1197.67 575.68 1202.26 571.972C1204.98 569.768 1204 564.062 1204 561C1204 552.167 1207.3 535.247 1203.4 527.318C1200.43 521.297 1186.44 527.238 1181.32 523.821C1176.39 520.531 1179 505.326 1179 500L1130 499z"/>
<path style="fill:#ffcfff; stroke:none;" d="M1156 499L1156 500L1179 500L1179 524L1180 524L1180 499L1156 499z"/>
<path style="fill:#9e45c7; stroke:none;" d="M1180 499L1180 524L1205 524L1205 499L1180 499z"/>
<path style="fill:#a934fe; stroke:none;" d="M855 500L855 523L878 523L878 500L855 500z"/>
<path style="fill:#ffd5fa; stroke:none;" d="M928 500C928 505.302 930.229 517.34 926.258 521.397C922.365 525.373 909.245 523 904 523L904 524L929 524L928 500z"/>
<path style="fill:#a735ff; stroke:none;" d="M930 500C930 505.79 932.311 518.036 928.397 522.682C924.335 527.503 910.756 525 905 525L905 560L903.397 573.397L890 575L855 575L856.858 595.397L867 597L892 597L903.972 599.318L905 626L905 698L928 698L928 644C928 638.915 925.981 628.257 930.318 624.603C933.61 621.829 940.007 623 944 623C956.346 623 968.748 622.452 981 624L981 678L982.603 696.972L1003 698L1003 646L1004.03 625.318L1015 623L1045 623L1055.97 625.434L1057 645L1057 697L1078 697C1076.55 679.623 1078 661.47 1078 644C1078 638.852 1076.08 628.739 1079.03 624.318C1081.32 620.882 1087.48 622 1091 622C1100.6 622 1110.42 621.417 1120 622.089C1123.1 622.307 1128.04 622.601 1129.97 625.433C1132.46 629.073 1131 636.776 1131 641L1131 679C1131 683.966 1129.17 693.144 1133.72 696.566C1138.11 699.867 1147.75 698 1153 698L1153 624C1153 617.97 1150.28 602.844 1155.32 598.603C1158.61 595.829 1165.01 597 1169 597L1203 597L1203 575L1169 575C1165.06 574.994 1158.62 575.542 1155.6 572.411C1150.35 566.95 1154 545.389 1154 538C1154 534.859 1155.21 528.406 1152.4 526.179C1147.97 522.67 1135.46 525 1130 525C1130 543.045 1131 560.942 1131 579C1131 583.913 1132.98 594.595 1129.26 598.397C1126.06 601.666 1117.19 600 1113 600L1071 600C1066.74 600 1059.21 601.424 1055.89 598.107C1051.45 593.663 1054 579.888 1054 574L1004 575C1004 580.646 1006.46 594.103 1002.26 598.397C999.057 601.666 990.19 600 986 600L945 600C940.594 600 932.804 601.481 929.603 597.682C926.055 593.471 928 583.187 928 578C928 559.943 929 542.049 929 524L953 524L953 500L930 500z"/>
<path style="fill:#0cf30d; stroke:none;" d="M955 500C955 504.871 952.633 518.647 956.742 521.972C960.791 525.248 972.941 523 978 523L978 500L955 500z"/>
<path style="fill:#16d878; stroke:none;" d="M978 500L978 524L979 524L978 500z"/>
<path style="fill:#00a490; stroke:none;" d="M979 500L979 523L980 523L979 500z"/>
<path style="fill:#009ac2; stroke:none;" d="M980 500L980 523L981 523L980 500z"/>
<path style="fill:#0189f7; stroke:none;" d="M981 500L981 523L1003 523L1003 500L981 500z"/>
<path style="fill:#1e84c6; stroke:none;" d="M1030 500L1030 524L1054 524L1054 523L1031 523L1031 501L1054 501L1030 500z"/>
<path style="fill:#5960e2; stroke:none;" d="M1054 500L1054 524L1055 524L1054 500z"/>
<path style="fill:#b867f2; stroke:none;" d="M1055 500L1055 524L1079 524L1079 523L1056 523L1055 500z"/>
<path style="fill:#fd48e3; stroke:none;" d="M1056 500L1056 523L1079 523L1079 500L1056 500z"/>
<path style="fill:#28dc3b; stroke:none;" d="M1081 502L1103 501L1103 523C1096.76 523 1087.12 524.878 1082 521L1081 521C1082.2 526.59 1098.94 524 1104 524L1104 500C1098.28 500 1084.9 497.54 1081 502z"/>
<path style="fill:#55bb71; stroke:none;" d="M1104 500L1104 524L1105 524L1104 500z"/>
<path style="fill:#5b7785; stroke:none;" d="M1105 500L1105 524L1106 524L1105 500z"/>
<path style="fill:#a635ff; stroke:none;" d="M1107 500L1107 524L1130 524L1129 500L1107 500z"/>
<path style="fill:#ffd6fb; stroke:none;" d="M1130 500L1130 524L1154 524L1154 523L1131 523L1130 500z"/>
<path style="fill:#a536fe; stroke:none;" d="M1181 500L1181 523C1185.72 523 1199.83 525.368 1202.97 521.397C1205.04 518.78 1204 513.12 1204 510C1204 507.383 1204.75 502.891 1202.4 501.028C1198.26 497.751 1186.13 500 1181 500z"/>
<path style="fill:#008aff; stroke:none;" d="M1031 501L1031 523L1054 523L1054 501L1031 501z"/>
<path style="fill:#0df30d; stroke:none;" d="M1103 523L1103 501C1098.06 501 1086.6 498.864 1082.6 502.028C1080.25 503.891 1081 508.383 1081 511C1080.99 526.216 1090.38 523 1103 523z"/>
<path style="fill:#39d93b; stroke:none;" d="M955 521C956.198 526.59 972.937 524 978 524L978 523L955 521z"/>
<path style="fill:#446bec; stroke:none;" d="M979 523L979 524L1004 524L979 523z"/>
<path style="fill:#9c45c7; stroke:none;" d="M829 524L829 574L854 574L854 524L829 524z"/>
<path style="fill:#ffd4ff; stroke:none;" d="M854 524L854 574L904 574L904 524L903 524L903 573L855 573L855 525L878 525L854 524z"/>
<path style="fill:#9c46c5; stroke:none;" d="M904 524L904 574L905 574L905 525L928 525L904 524z"/>
<path style="fill:#fe46e6; stroke:none;" d="M929 524L929 548L954 548L954 524L929 524z"/>
<path style="fill:#ffd7ff; stroke:none;" d="M954 524L954 549L979 549L979 525L978 525L976.397 546.397L955 548L954 524z"/>
<path style="fill:#c9ffcb; stroke:none;" d="M955 524L955 525L977 525L955 524z"/>
<path style="fill:#ffffff; stroke:none;" d="M955 525L955 548C959.718 548 973.827 550.368 976.972 546.397C980.588 541.832 977.617 529.809 979 524L955 525z"/>
<path style="fill:#ba67f3; stroke:none;" d="M979 524L979 525L1003 525L1003 548L1004 548L1004 524L979 524z"/>
<path style="fill:#4769ef; stroke:none;" d="M1004 524L1004 547L1005 547L1004 524z"/>
<path style="fill:#2581ce; stroke:none;" d="M1005 524L1005 525L1029 525L1029 547L1005 547L1005 548L1030 548L1030 524L1005 524z"/>
<path style="fill:#fefefe; stroke:none;" d="M1030 524L1030 548L1054 548L1055 524L1030 524z"/>
<path style="fill:#4769ee; stroke:none;" d="M1055 524L1055 525L1079 525L1055 524z"/>
<path style="fill:#0095ce; stroke:none;" d="M1079 524L1079 547L1056 547L1056 548L1080 548L1079 524z"/>
<path style="fill:#fefefe; stroke:none;" d="M1080 524L1080 549L1104 548L1105 524L1080 524z"/>
<path style="fill:#caffcd; stroke:none;" d="M1081 524L1081 525L1104 525L1081 524z"/>
<path style="fill:#ff46e5; stroke:none;" d="M1105 524L1105 548L1130 548L1130 524L1105 524z"/>
<path style="fill:#994bb8; stroke:none;" d="M1130 524L1130 525C1135.47 525 1148.22 522.654 1152.4 526.742C1155.14 529.423 1154 535.537 1154 539L1154 573L1155 573L1155 524L1130 524z"/>
<path style="fill:#ffd4ff; stroke:none;" d="M1181 524L1181 525C1186.14 525 1198.53 522.737 1202.4 526.603C1204.82 529.029 1204 533.899 1204 537L1204 562C1203.99 565.17 1204.59 569.894 1201.57 571.972C1194.81 576.626 1175.15 573.004 1167 573C1163.5 572.998 1158.32 573.776 1156.6 569.852C1154.93 566.029 1156 560.094 1156 556L1156 525L1155 525L1155 574L1205 574L1205 524L1181 524z"/>
<path style="fill:#9448cc; stroke:none;" d="M1205 524L1205 574L1230 574L1230 524L1205 524z"/>
<path style="fill:#a735ff; stroke:none;" d="M831 573L853 573L853 525L832.603 526.028L831 538L831 573z"/>
<path style="fill:#cc67c3; stroke:none;" d="M979 525L979 549L1004 549L1004 548C998.808 548 984.403 550.513 981.179 545.682C977.424 540.055 981.585 531.161 979 525z"/>
<path style="fill:#fc48e5; stroke:none;" d="M980 525C980 529.871 977.633 543.647 981.742 546.972C985.791 550.248 997.941 548 1003 548L1003 525L980 525z"/>
<path style="fill:#0088fe; stroke:none;" d="M1005 525L1005 547L1029 547L1029 525L1005 525z"/>
<path style="fill:#2e7fb4; stroke:none;" d="M1055 525L1055 549L1056 549L1055 525z"/>
<path style="fill:#0188fd; stroke:none;" d="M1056 525L1056 547L1079 547L1079 525L1056 525z"/>
<path style="fill:#a635ff; stroke:none;" d="M1207 525L1207 560L1208.74 571.972L1229 573L1229 525L1207 525z"/>
<path style="fill:#ceffff; stroke:none;" d="M1054 526L1054 549L1055 549L1054 526z"/>
<path style="fill:#ffd6ff; stroke:none;" d="M1104 526L1104 548L1081 548L1081 549L1105 549L1104 526z"/>
<path style="fill:#6a61b0; stroke:none;" d="M1004 547C1008.17 551.772 1023.83 549 1030 549L1030 548L1004 547z"/>
<path style="fill:#a570fe; stroke:none;" d="M929 548L929 549L954 549L929 548z"/>
<path style="fill:#ffd6ff; stroke:none;" d="M1030 548L1030 549L1054 549L1030 548z"/>
<path style="fill:#00a88e; stroke:none;" d="M1056 548L1056 549L1080 549L1056 548z"/>
<path style="fill:#ab6efa; stroke:none;" d="M1105 548L1105 549L1130 549L1105 548z"/>
<path style="fill:#6a54ff; stroke:none;" d="M928 549L928 598L929 598L930 549L928 549z"/>
<path style="fill:#4469ee; stroke:none;" d="M930 549L930 550L953 550L953 574L954 574L954 549L930 549z"/>
<path style="fill:#bb66f5; stroke:none;" d="M954 549L954 574L979 574L979 573L955 573L954 549z"/>
<path style="fill:#e459d0; stroke:none;" d="M955 549L955 551L975.397 552.603L977 573L979 573L979 549L955 549z"/>
<path style="fill:#ffd6ff; stroke:none;" d="M979 549L979 573L980 573L980 550L1003 550L1003 574L1004 574L1004 549L979 549z"/>
<path style="fill:#7d265d; stroke:none;" d="M1004 549L1004 550L1030 550L1004 549z"/>
<path style="fill:#d565bb; stroke:none;" d="M1030 549L1030 550L1053 550L1053 574L1054 574L1054 549L1030 549z"/>
<path style="fill:#9e8b87; stroke:none;" d="M1054 549L1054 574L1055 574L1054 549z"/>
<path style="fill:#6db35d; stroke:none;" d="M1055 549L1055 573L1056 573L1055 549z"/>
<path style="fill:#19d775; stroke:none;" d="M1056 549L1056 550L1079 550L1056 549z"/>
<path style="fill:#56c051; stroke:none;" d="M1079 549L1079 574L1080 574L1079 549z"/>
<path style="fill:#b37b9e; stroke:none;" d="M1080 549L1080 574L1081 574L1080 549z"/>
<path style="fill:#ff46e5; stroke:none;" d="M1081 549L1081 573L1104 573L1104 549L1081 549z"/>
<path style="fill:#a272fc; stroke:none;" d="M1104 549L1104 573L1105 573L1104 549z"/>
<path style="fill:#4b66e7; stroke:none;" d="M1105 549C1105 554.477 1107.49 568.306 1103.4 572.397C1099.09 576.706 1083.81 574 1078 574L1078 575C1083.42 575 1101.44 577.859 1104.97 573.397C1108.47 568.975 1106 555.51 1106 550L1128 550L1105 549z"/>
<path style="fill:#754eff; stroke:none;" d="M1128 549L1128 550L1130 565L1130 598L1131 598L1131 549L1128 549z"/>
<path style="fill:#4068fe; stroke:none;" d="M929 550L929 599L984 599L1002.97 597.397L1004 574L1003 574C1003 579.245 1005.37 592.365 1001.4 596.258C998.258 599.33 990.994 598 987 598L947 598C942.938 598 934.744 599.537 931.603 596.397C928.87 593.663 930 587.503 930 584C930 574.153 932.808 559.074 929 550z"/>
<path style="fill:#0088fe; stroke:none;" d="M930 550L930 585C930 588.151 928.784 594.739 931.603 596.972C934.85 599.544 943.071 598 947 598L986 598C990.053 598 998.025 599.491 1001.4 596.821C1005.36 593.681 1003 579.709 1003 575L967 575L954.028 572.682L953 550L930 550z"/>
<path style="fill:#fffdfe; stroke:none;" d="M980 550L979 574L1003 574L1003 550L980 550z"/>
<path style="fill:#af151f; stroke:none;" d="M1004 550L1004 573L1005 573L1005 551L1030 551L1004 550z"/>
<path style="fill:#ff46e0; stroke:none;" d="M1030 550L1030 574L1053 574L1053 550L1030 550z"/>
<path style="fill:#18e73d; stroke:none;" d="M1056 550L1056 574L1079 574L1079 573L1076 570L1057 572L1057 551L1079 551L1056 550z"/>
<path style="fill:#0088fe; stroke:none;" d="M1106 550C1106 555.477 1108.49 569.306 1104.4 573.397C1101.52 576.272 1094.69 575 1091 575L1055 575L1056 598L1130 598L1130 550L1106 550z"/>
<path style="fill:#fd47e9; stroke:none;" d="M955 551L955 573L977 573L975.397 552.028L955 551z"/>
<path style="fill:#e2000c; stroke:none;" d="M1005 551L1005 573L1029 573L1029 552L1005 551z"/>
<path style="fill:#c50447; stroke:none;" d="M1024 551L1024 552L1029 552L1029 573L1004 573L1004 574L1030 574L1030 551L1024 551z"/>
<path style="fill:#0bf40d; stroke:none;" d="M1057 551L1057 572L1076 570L1076 573L1079 573L1079 551L1057 551z"/>
<path style="fill:#009fa1; stroke:none;" d="M1055 573C1058.9 577.46 1072.28 575 1078 575L1078 574L1055 573z"/>
<path style="fill:#b968f3; stroke:none;" d="M1081 573L1081 574L1104 574L1081 573z"/>
<path style="fill:#ffffff; stroke:none;" d="M151 574L151 624L176 624L176 574L151 574M327 574L327 624L352 624L352 574L327 574z"/>
<path style="fill:#9547d1; stroke:none;" d="M854 574L854 599L904 599L904 699L929 699L929 625L928 625L928 698L905 698L905 628C905 620.392 907.768 606.17 904.397 599.318C902.584 595.635 895.333 597 892 597C884.341 597 863.343 600.655 857.514 595.397C852.986 591.312 855 580.485 855 575L904 575C891.11 569.591 868.049 574 854 574z"/>
<path style="fill:#4a68ea; stroke:none;" d="M954 574L954 575L978 575L954 574z"/>
<path style="fill:#287fcc; stroke:none;" d="M978 574L978 575L1003 575L978 574z"/>
<path style="fill:#c72fbf; stroke:none;" d="M1004 574L1004 575L1030 575L1004 574z"/>
<path style="fill:#6457ff; stroke:none;" d="M1054 574C1054 579.868 1051.43 594.011 1056 598L1054 574z"/>
<path style="fill:#8d51b5; stroke:none;" d="M1160 574L1160 575L1203 575L1203 598L1156 598L1156 599L1205 599L1205 574L1160 574z"/>
<path style="fill:#9c41dc; stroke:none;" d="M1153 696L1154 696L1154 624C1154 618.124 1151.39 603.751 1156.32 599.603C1159.61 596.829 1166.01 598 1170 598L1203 598C1193.21 593.892 1176.63 597 1166 597C1162.48 597 1156.32 595.882 1154.03 599.318C1150.28 604.935 1153 619.371 1153 626L1153 696z"/>
<path style="fill:#4068fe; stroke:none;" d="M1056 598L1056 599L1129 599L1106 598L1056 598z"/>
<path style="fill:#6555fe; stroke:none;" d="M1129 598L1104 599L1056 599L1056 600L1112 600L1129 598z"/>
<path style="fill:#ffffff; stroke:none;" d="M201 599L201 624L226 624L226 599L201 599M277 599L277 624L302 624L302 599L277 599z"/>
<path style="fill:#6555fe; stroke:none;" d="M930 599L930 600L1003 600L980 599L930 599z"/>
<path style="fill:#8e4fb8; stroke:none;" d="M1154 600L1154 671C1154 676.948 1156.68 691.884 1152.26 696.397C1147.64 701.11 1132.94 698.611 1131.3 691.91C1129.67 685.252 1131 676.84 1131 670L1131 624L1130 624L1130 699L1155 699L1155 630L1154 600z"/>
<path style="fill:#9e3fe3; stroke:none;" d="M1078 697L1057 697L1057 624L1056 624L1056 698L1079 698L1079 624L1129 624C1118.66 619.031 1102.28 622 1091 622C1087.85 622 1081.26 620.784 1079.03 623.603C1075.99 627.439 1078 638.295 1078 643C1078 660.252 1075.21 680.095 1078 697z"/>
<path style="fill:#a244bc; stroke:none;" d="M930 623L930 624L978 624C965.586 618.791 943.526 623 930 623z"/>
<path style="fill:#9845d1; stroke:none;" d="M1004 623L1004 624L1055 624C1041.87 618.492 1018.31 623 1004 623z"/>
<path style="fill:#ffcfff; stroke:none;" d="M929 624L929 699L954 699L954 698L930 698L930 625L954 625L929 624z"/>
<path style="fill:#fbb4dc; stroke:none;" d="M954 624L954 625L978 625L978 698L954 698L954 699L979 699L979 624L954 624z"/>
<path style="fill:#9e4aa8; stroke:none;" d="M979 624L979 699L980 699L980 647L979 624z"/>
<path style="fill:#9547ce; stroke:none;" d="M980 624L980 699L1004 699L1004 624L1003 624L1003 698L982.603 696.397L981 677L981 641L980 624z"/>
<path style="fill:#ffffff; stroke:none;" d="M1004 624L1004 699L979 699L979 720L1080 720L1080 699L1055 699L1055 624L1004 624z"/>
<path style="fill:#9f46bc; stroke:none;" d="M1055 624L1055 699L1080 699L1080 624L1079 624L1079 698L1056 698L1056 647L1055 624z"/>
<path style="fill:#fcb8d1; stroke:none;" d="M1080 624L1080 699L1104 699L1104 698L1082.6 696.397L1081 678L1081 625L1105 625L1080 624z"/>
<path style="fill:#ffd2ff; stroke:none;" d="M1105 624L1105 625L1129 625L1129 698L1104 698L1104 699L1130 699L1130 624L1105 624z"/>
<path style="fill:#ffe6c7; stroke:none;" d="M930 625L930 698L954 698L954 625L930 625z"/>
<path style="fill:#f3c98d; stroke:none;" d="M954 625L954 698L978 698L978 625L954 625M1081 625L1081 679L1082.6 696.972L1105 698L1105 625L1081 625z"/>
<path style="fill:#ffe6c7; stroke:none;" d="M1105 625L1105 698L1129 698L1129 625L1105 625z"/>
<path style="fill:#ffffff; stroke:none;" d="M151 649L151 674L201 674L201 649L151 649M226 649L226 699L201 699L201 720L302 720L302 699L277 699L277 649L226 649M302 649L302 674L352 674L352 649L302 649z"/>
<path style="fill:#974aba; stroke:none;" d="M929 699L929 720L930 720L930 700L978 700L978 720L979 720L979 699L929 699z"/>
<path style="fill:#924cbc; stroke:none;" d="M1080 699L1080 700L1129 700L1129 720L1130 720L1130 699L1080 699z"/>
<path style="fill:#9c41dc; stroke:none;" d="M930 700L930 720L931 720L932.603 703.434L945 701L977 701L977 720L978 720L978 700L930 700z"/>
<path style="fill:#a735ff; stroke:none;" d="M1080 700L1080 720L1129 720L1129 700L1080 700M931 720L977 720L977 701L945 701L932.603 702.742L931 720z"/>
</svg>
